<?xml version="1.0" encoding="UTF-8" standalone="no"?>
<!-- Created with Inkscape (http://www.inkscape.org/) -->

<svg
   width="115.83711mm"
   height="39.318119mm"
   viewBox="0 0 115.83712 39.31812"
   version="1.1"
   id="svg1"
   xml:space="preserve"
   xmlns="http://www.w3.org/2000/svg"
   xmlns:svg="http://www.w3.org/2000/svg"><defs
     id="defs1" /><g
     id="layer1"
     transform="translate(-47.806785,-134.68116)"><g
       id="g1"><path
         style="fill:#ef9527"
         d="m 89.434796,173.63157 c 0.854548,-0.0536 2.252899,-0.0536 3.107447,0 0.854548,0.0536 0.155372,0.0975 -1.553723,0.0975 -1.709096,0 -2.408271,-0.0439 -1.553724,-0.0975 z m -4.526063,-0.34074 -1.351064,-0.18531 1.48617,-0.0235 c 0.817394,-0.0129 1.729362,0.081 2.026596,0.20877 0.488407,0.20987 0.475403,0.22997 -0.135107,0.20876 -0.371542,-0.0129 -1.28351,-0.10684 -2.026595,-0.20876 z m 9.68161,0.0911 c 0.16015,-0.16015 1.459271,-0.34271 5.315198,-0.74694 l 1.215959,-0.12747 -1.08085,0.25824 c -2.372729,0.56691 -5.787042,0.9529 -5.450307,0.61617 z m -12.113525,-0.48732 c -0.148617,-0.0459 -0.97382,-0.23913 -1.833784,-0.42951 -1.632965,-0.36151 -1.636218,-0.78357 -0.0061,-0.79139 0.89765,-0.004 1.417689,0.38935 0.828269,0.62698 -0.186698,0.0753 0.02534,0.14831 0.471188,0.16232 0.445851,0.014 0.993032,0.14334 1.215958,0.28741 0.360283,0.23283 0.360283,0.26003 0,0.24474 -0.222926,-0.009 -0.526915,-0.0547 -0.675531,-0.10055 z m 18.374472,-0.67414 c -0.66896,-0.16157 -0.72741,-0.2321 -0.33445,-0.40353 0.2619,-0.11425 0.86988,-0.14397 1.35106,-0.066 0.94634,0.15328 2.90147,-0.29451 2.90147,-0.66454 0,-0.12509 0.21279,-0.22927 0.47287,-0.23151 0.58543,-0.005 2.08132,-0.53973 3.22914,-1.15424 0.47562,-0.25463 1.05552,-0.46297 1.28866,-0.46297 0.32074,0 0.38527,-0.18081 0.26522,-0.74308 -0.13703,-0.64176 -0.1101,-0.68482 0.19751,-0.3158 0.29119,0.34933 0.49175,0.37151 1.09925,0.12158 0.53027,-0.21816 0.65982,-0.38895 0.45238,-0.59639 -0.20744,-0.20744 -0.0944,-0.25317 0.39459,-0.15969 0.45899,0.0877 0.95158,-0.0795 1.49171,-0.50642 1.18733,-0.9385 1.07834,-1.34943 -0.31207,-1.1766 -0.84226,0.1047 -1.00434,0.0746 -0.60798,-0.11292 1.45122,-0.68656 2.60152,0.0774 1.59126,1.05683 -1.14358,1.10869 -5.98596,3.48056 -9.60195,4.70318 -1.5809,0.53453 -2.91794,0.95748 -2.9712,0.9399 -0.0533,-0.0176 -0.46162,-0.12008 -0.90747,-0.22777 z m -24.454259,-1.06344 c -3.426411,-1.279 -9.091311,-4.33823 -8.437084,-4.55631 0.171458,-0.0571 0.578186,0.14432 0.903841,0.44771 0.839017,0.78167 4.664976,2.72965 5.361195,2.72965 0.320466,0 0.518722,0.10346 0.440568,0.22992 -0.07815,0.12645 0.370654,0.38549 0.997351,0.57564 1.309014,0.39717 3.433406,1.32904 3.030937,1.32953 -0.148617,1.9e-4 -1.182181,-0.34008 -2.296808,-0.75614 z M 115.59298,170.918 c 0.0252,-0.775 1.03327,-2.9859 1.05065,-2.30427 0.008,0.32562 -0.11874,0.67475 -0.28233,0.77585 -0.16591,0.10254 -0.23081,0.51699 -0.14675,0.93725 0.10338,0.51692 0.0271,0.80085 -0.24299,0.9045 -0.25312,0.0971 -0.38829,-0.0147 -0.37858,-0.31333 z m 1.73934,-1.67757 c 1.08377,-1.5419 1.14643,-1.90086 0.44296,-2.5375 -0.48147,-0.43572 -0.5127,-0.41697 -0.67741,0.4066 -0.095,0.47486 -0.23055,0.8055 -0.30129,0.73477 -0.0707,-0.0707 -0.009,-0.54534 0.13699,-1.05467 0.14607,-0.50934 0.26559,-1.37858 0.26559,-1.93164 0,-1.43516 -0.61547,-1.69884 -3.91809,-1.67861 -1.96771,0.0121 -2.40836,-0.0395 -1.62127,-0.18956 0.59446,-0.11337 1.68883,-0.22273 2.43191,-0.24303 0.74309,-0.0203 1.19907,-0.0982 1.0133,-0.1732 -0.46757,-0.18867 -0.42456,-0.63168 0.0613,-0.63168 0.2195,0 0.58995,0.29129 0.82322,0.64731 0.23328,0.35602 0.66105,0.70926 0.95061,0.78498 0.60055,0.15705 0.69289,0.37012 0.93091,2.14803 0.10698,0.79908 0.30699,1.28351 0.52993,1.28351 0.37567,0 0.63336,-0.89878 0.86974,-3.03354 0.21559,-1.94698 -0.12213,-2.15006 -3.54902,-2.13416 -1.5512,0.007 -3.03891,0.12446 -3.30603,0.26059 -0.26713,0.13613 -0.96467,0.45376 -1.55011,0.70583 -0.81809,0.35225 -0.97442,0.51526 -0.67553,0.70438 0.21389,0.13534 0.2673,0.24607 0.11868,0.24607 -0.14862,0 -0.43297,-0.10316 -0.6319,-0.22925 -0.27017,-0.17125 -0.13343,-0.36702 0.54043,-0.77373 1.56751,-0.94609 2.9812,-1.26106 5.63083,-1.25456 3.32613,0.008 3.78298,0.24492 3.78298,1.96048 0,0.71331 -0.24814,2.05281 -0.55142,2.97665 -0.5853,1.78292 -2.02977,4.35422 -2.44604,4.35422 -0.13694,0 0.17747,-0.60673 0.69871,-1.34829 z m -28.505502,0.80786 c -0.272945,-0.17639 0.769193,-0.26329 3.190947,-0.26607 2.329708,-0.003 3.53745,0.091 3.429265,0.26607 -0.215606,0.34886 -6.080392,0.34886 -6.620212,0 z m -5.269149,-0.54042 c -0.297234,-0.12773 -1.178803,-0.24078 -1.959043,-0.25122 -0.780239,-0.0104 -1.418617,-0.14059 -1.418617,-0.28921 0,-0.34456 -0.0065,-0.34486 2.857172,0.12835 1.326587,0.2192 2.837562,0.44293 3.357722,0.49718 0.520159,0.0542 0.21617,0.10953 -0.675532,0.12287 -0.891702,0.0133 -1.864468,-0.0803 -2.161702,-0.20797 z m 12.587411,0.17262 c 0.300871,-0.26079 4.03067,-0.42227 4.03067,-0.17451 0,0.159 -0.861106,0.2721 -2.071628,0.2721 -1.139397,0 -2.020966,-0.0439 -1.959042,-0.0976 z m 4.97642,-0.62294 c 0.72759,-0.11637 4.93364,-1.13151 7.02553,-1.69562 0.44585,-0.12024 1.45352,-0.47696 2.23926,-0.79272 1.64143,-0.65963 1.67882,-0.6664 1.67882,-0.3039 0,0.14862 -0.31116,0.27022 -0.69147,0.27022 -0.38032,0 -0.62475,0.10797 -0.54319,0.23994 0.13906,0.225 -0.38894,0.38499 -2.46179,0.74597 -0.56163,0.0978 -0.81204,0.27257 -0.723,0.50458 0.10459,0.27257 -0.12973,0.31929 -1.0096,0.20127 -0.91402,-0.12259 -1.11635,-0.0769 -1.00022,0.22568 0.11045,0.28784 -0.15579,0.39224 -1.10353,0.43273 -0.68701,0.0293 -1.91789,0.10919 -2.73528,0.17743 -0.81739,0.0682 -1.12138,0.0657 -0.67553,-0.006 z m -23.798406,-0.66238 c -0.117838,-0.19067 -0.621956,-0.2424 -1.367011,-0.14027 -0.769439,0.10546 -1.180329,0.0594 -1.180329,-0.13218 0,-0.16167 0.188709,-0.22153 0.419354,-0.13303 0.240469,0.0923 0.348931,0.047 0.254265,-0.10619 -0.0908,-0.14692 -0.454724,-0.26712 -0.808725,-0.26712 -0.354001,0 -0.718788,-0.1216 -0.810638,-0.27022 -0.09185,-0.14861 -0.524612,-0.27021 -0.961692,-0.27021 -0.43708,0 -0.794691,-0.12159 -0.794691,-0.27021 0,-0.14862 -0.357611,-0.27021 -0.794691,-0.27021 -0.437081,0 -0.876919,-0.13305 -0.977419,-0.29566 -0.1005,-0.16261 -0.50055,-0.23491 -0.889,-0.16065 -0.65407,0.12504 -0.668942,0.10772 -0.201212,-0.2343 0.313167,-0.22899 0.670544,-0.28406 0.940606,-0.14495 0.875587,0.45103 6.428733,2.20963 8.136609,2.57675 l 1.756383,0.37754 -1.267563,0.0215 c -0.69716,0.0118 -1.351571,-0.11445 -1.454246,-0.28058 z m -12.1801,-3.55578 c -3.437216,-2.80109 -3.05798,-3.0544 1.303811,-0.87088 1.943416,0.97287 2.735622,1.48617 2.293719,1.48617 -0.371279,0 -0.715585,-0.0912 -0.765124,-0.20266 -0.171427,-0.38571 -2.611394,-1.47876 -2.901181,-1.29966 -0.458197,0.28318 0.2746,0.90332 0.880265,0.74493 0.352168,-0.0921 0.478082,-0.0184 0.394887,0.23122 -0.06718,0.20153 0.190134,0.64171 0.571803,0.97818 1.49907,1.32154 0.186188,0.53352 -1.77818,-1.0673 z m -0.365112,-1.2762 c 0,-0.14862 -0.182393,-0.27022 -0.405319,-0.27022 -0.222925,0 -0.405319,0.1216 -0.405319,0.27022 0,0.14861 0.182394,0.27021 0.405319,0.27021 0.222926,0 0.405319,-0.1216 0.405319,-0.27021 z m 53.772338,0.79469 c 0,-0.15739 0.1216,-0.21101 0.27021,-0.11916 0.14862,0.0918 0.27022,0.22062 0.27022,0.28616 0,0.0655 -0.1216,0.11916 -0.27022,0.11916 -0.14861,0 -0.27021,-0.12877 -0.27021,-0.28616 z"
         id="path4" /><path
         style="fill:#f79519"
         d="m 87.405998,173.40121 c -0.109136,-0.10914 -1.080455,-0.29228 -2.158486,-0.40699 -1.989375,-0.21168 -4.414345,-0.69639 -3.768045,-0.75317 0.194542,-0.0171 0.269893,-0.1667 0.167447,-0.33246 -0.115074,-0.18619 -0.660235,-0.24796 -1.426342,-0.16161 -0.854239,0.0963 -1.57893,-0.009 -2.329149,-0.33885 -0.59899,-0.26324 -1.601825,-0.63424 -2.228521,-0.82443 -0.626697,-0.19019 -1.075504,-0.44927 -0.997351,-0.57572 0.07815,-0.12646 -0.120102,-0.22992 -0.440568,-0.22992 -0.687493,0 -4.517791,-1.94389 -5.340417,-2.71029 -0.314227,-0.29274 -0.710847,-0.53226 -0.881379,-0.53226 -0.530489,0 -1.784306,-1.21555 -1.654744,-1.60424 0.0842,-0.25259 -0.04024,-0.3265 -0.393959,-0.234 -0.605665,0.15839 -1.338462,-0.46175 -0.880265,-0.74493 0.289787,-0.1791 2.729754,0.91395 2.901181,1.29966 0.04954,0.11146 0.467966,0.20266 0.929837,0.20266 0.787577,0 0.807488,0.0236 0.320387,0.37977 -0.48864,0.35731 -0.477578,0.37179 0.186893,0.24477 0.38845,-0.0743 0.7885,-0.002 0.889,0.16065 0.1005,0.16261 0.540338,0.29566 0.977419,0.29566 0.43708,0 0.794691,0.12159 0.794691,0.27021 0,0.14862 0.357611,0.27021 0.794691,0.27021 0.43708,0 0.869841,0.1216 0.961692,0.27021 0.09185,0.14862 0.456637,0.27022 0.810638,0.27022 0.354001,0 0.717927,0.1202 0.808725,0.26712 0.09467,0.15317 -0.0138,0.19847 -0.254265,0.10619 -0.230645,-0.0885 -0.419354,-0.0286 -0.419354,0.13303 0,0.19163 0.41089,0.23764 1.180329,0.13218 0.745055,-0.10213 1.249173,-0.0504 1.367011,0.14027 0.102675,0.16613 0.787485,0.30206 1.521799,0.30206 0.734314,0 1.335116,0.10743 1.335116,0.23873 0,0.13131 0.820772,0.32058 1.823937,0.4206 1.003164,0.10003 2.979095,0.30232 4.390957,0.44954 4.318426,0.45031 8.691179,0.57612 9.008122,0.25918 0.157958,-0.15796 1.296441,-0.2872 2.529963,-0.2872 1.233521,0 2.242762,-0.11034 2.242762,-0.24521 0,-0.24468 1.99155,-0.53948 4.35656,-0.64487 0.94717,-0.0422 1.21392,-0.14737 1.10353,-0.43503 -0.11613,-0.30262 0.0862,-0.34827 1.00022,-0.22568 0.87987,0.11802 1.11419,0.0713 1.0096,-0.20127 -0.089,-0.23201 0.16137,-0.40677 0.723,-0.50458 2.07285,-0.36098 2.60085,-0.52097 2.46179,-0.74597 -0.0816,-0.13197 0.15274,-0.23994 0.52067,-0.23994 0.36793,0 0.70949,-0.1031 0.75903,-0.2291 0.0495,-0.126 0.60685,-0.30983 1.23848,-0.40851 1.39478,-0.21791 1.50777,0.19481 0.31207,1.13993 -0.54013,0.42693 -1.03272,0.59416 -1.49171,0.50642 -0.48903,-0.0935 -0.60203,-0.0478 -0.39459,0.15969 0.20744,0.20744 0.0779,0.37823 -0.45238,0.59639 -0.6075,0.24993 -0.80806,0.22775 -1.09925,-0.12158 -0.30761,-0.36902 -0.33454,-0.32596 -0.19751,0.3158 0.12005,0.56227 0.0555,0.74308 -0.26522,0.74308 -0.23314,0 -0.81304,0.20834 -1.28866,0.46297 -1.14782,0.61451 -2.64371,1.14921 -3.22914,1.15424 -0.26008,0.002 -0.47287,0.10526 -0.47287,0.22895 0,0.40326 -1.82551,0.79702 -3.05341,0.65862 -0.73218,-0.0825 -1.27214,-0.0178 -1.38583,0.16618 -0.11858,0.19186 0.0896,0.31521 0.57276,0.33943 0.74822,0.0375 -0.2365,0.22856 -4.104796,0.79643 -2.451304,0.35985 -9.135117,0.61374 -9.392096,0.35676 z m 28.712312,-3.20555 c 0,-0.23371 0.11353,-0.63608 0.25229,-0.89414 0.13877,-0.25806 0.4073,-1.0427 0.59674,-1.74364 0.32472,-1.20148 0.37215,-1.24935 0.82855,-0.83631 0.66381,0.60074 0.61403,0.94541 -0.3409,2.36035 -0.94198,1.39576 -1.33668,1.72463 -1.33668,1.11374 z m 1.75276,-4.67345 c -0.23802,-1.77791 -0.33036,-1.99098 -0.93091,-2.14803 -0.28956,-0.0757 -0.71733,-0.42896 -0.95061,-0.78498 -0.23327,-0.35602 -0.60372,-0.64731 -0.82322,-0.64731 -0.48588,0 -0.52889,0.44301 -0.0613,0.63168 0.18577,0.075 -0.22322,0.14589 -0.90886,0.15763 -0.68565,0.0117 -1.89089,0.14351 -2.67831,0.29284 -1.76687,0.33508 -2.01721,0.16622 -0.63458,-0.42803 0.57571,-0.24743 1.2653,-0.56127 1.53243,-0.6974 0.26712,-0.13613 1.75483,-0.2534 3.30603,-0.26059 3.42689,-0.0159 3.76461,0.18718 3.54902,2.13416 -0.23638,2.13476 -0.49407,3.03354 -0.86974,3.03354 -0.22294,0 -0.42295,-0.48443 -0.52993,-1.28351 z m 1.21958,-0.99735 c 0,-0.0655 -0.1216,-0.19431 -0.27022,-0.28616 -0.14861,-0.0918 -0.27021,-0.0382 -0.27021,0.11916 0,0.15739 0.1216,0.28616 0.27021,0.28616 0.14862,0 0.27022,-0.0536 0.27022,-0.11916 z m -55.123406,-0.96169 c 0,-0.14862 0.182394,-0.27022 0.405319,-0.27022 0.222926,0 0.405319,0.1216 0.405319,0.27022 0,0.14861 -0.182393,0.27021 -0.405319,0.27021 -0.222925,0 -0.405319,-0.1216 -0.405319,-0.27021 z"
         id="path3" /><path
         style="fill:#020202"
         d="m 153.14105,166.65917 c -2.40523,-0.67414 -2.70572,-0.97365 -2.70572,-2.69691 0,-0.81397 0.10859,-1.47995 0.24131,-1.47995 0.13272,0 1.18793,0.19577 2.34492,0.43504 3.64649,0.75411 5.45297,0.14705 6.05948,-2.03625 0.29571,-1.06449 0.36065,-2.81299 0.11365,-3.05999 -0.0867,-0.0867 -0.74275,0.13621 -1.45786,0.49539 -1.56537,0.78624 -3.22703,0.83708 -4.73448,0.14485 -1.36732,-0.62788 -1.81883,-1.14323 -2.75706,-3.147 -0.71045,-1.51729 -0.75571,-1.83242 -0.75571,-5.26182 0,-3.4294 0.0453,-3.74453 0.75571,-5.26182 0.90776,-1.93868 1.36163,-2.47131 2.67874,-3.14353 1.78768,-0.9124 4.4098,-0.57534 5.93842,0.76334 0.50197,0.4396 1.03032,0.26257 1.03032,-0.34522 0,-0.29936 0.40888,-0.38937 1.76882,-0.38937 h 1.76882 l -0.08,9.93032 c -0.0797,9.89452 -0.0824,9.93509 -0.73613,11.25299 -0.78836,1.5892 -2.01321,2.86638 -3.36339,3.50708 -1.39988,0.66428 -4.29033,0.80283 -6.10985,0.29285 z m 5.06289,-11.73554 1.14841,-0.52128 v -4.33038 c 0,-4.30303 -0.004,-4.33314 -0.66524,-4.76627 -1.02386,-0.67086 -2.71311,-0.80765 -3.51173,-0.28438 -1.10003,0.72077 -1.56218,1.9569 -1.67566,4.48188 -0.13736,3.05644 0.43464,4.7985 1.79944,5.48029 1.18446,0.59171 1.48291,0.58556 2.90478,-0.0599 z M 51.169228,159.9248 c -2.176224,-0.7758 -3.365581,-2.86026 -3.079617,-5.39733 0.387145,-3.43473 2.734654,-5.08174 8.109016,-5.68926 l 1.553723,-0.17563 v -1.28452 c 0,-0.99332 -0.141778,-1.41771 -0.625394,-1.87205 -1.295729,-1.21727 -3.932864,-0.49074 -4.357325,1.20045 -0.178117,0.70967 -0.194789,0.71412 -1.989409,0.53057 -0.995382,-0.10181 -1.914108,-0.28915 -2.041611,-0.41631 -0.353244,-0.3523 0.327426,-2.10865 1.204207,-3.10725 1.256891,-1.43152 3.214571,-2.14576 5.918043,-2.15915 1.925923,-0.01 2.512709,0.0975 3.633829,0.6631 2.482363,1.25225 2.835464,2.29134 2.844831,8.37166 0.0062,3.99638 0.03901,4.24877 0.731083,5.61663 l 0.724636,1.43222 -1.332615,1.19413 c -0.732938,0.65677 -1.509882,1.19957 -1.726541,1.20623 -0.21666,0.007 -0.843721,-0.4271 -1.39347,-0.96392 l -0.999543,-0.97603 -1.178755,0.81101 c -1.999538,1.37572 -4.023054,1.71846 -5.995088,1.01545 z m 5.093256,-3.43253 c 1.004837,-0.79041 1.489866,-2.06031 1.489866,-3.90077 v -1.53158 l -1.243936,0.1705 c -1.714522,0.235 -2.544708,0.68725 -3.294034,1.79445 -1.615015,2.38633 0.853118,5.19397 3.048104,3.4674 z m 38.45654,3.46543 c -0.697637,-0.19609 -1.476881,-0.52904 -1.731652,-0.73989 -1.32492,-1.09652 -1.865804,-4.42467 -1.040211,-6.40059 0.857059,-2.05123 2.427983,-3.09038 5.421482,-3.58624 3.974327,-0.65833 3.743127,-0.54871 3.835797,-1.81865 0.0671,-0.91899 -0.047,-1.26649 -0.5957,-1.81521 -0.996885,-0.99689 -2.637588,-0.94752 -3.696325,0.11122 -0.434419,0.43442 -0.789853,0.99918 -0.789853,1.25503 0,0.41049 -0.21219,0.44536 -1.804778,0.29665 -0.992627,-0.0927 -1.916896,-0.28066 -2.053931,-0.41769 -0.911108,-0.91111 1.683003,-4.22071 3.801557,-4.85007 2.052763,-0.60982 3.632449,-0.67099 5.43074,-0.21029 3.72251,0.95366 4.12008,1.74988 4.33205,8.67588 0.14902,4.86921 0.19083,5.1813 0.81058,6.05025 l 0.65346,0.91622 -1.37645,1.31304 c -0.75705,0.72217 -1.55374,1.31304 -1.77042,1.31304 -0.21668,0 -0.84455,-0.49874 -1.39526,-1.10831 l -1.00129,-1.10831 -0.71898,0.67214 c -1.658663,1.55062 -4.023616,2.09467 -6.310816,1.45178 z m 5.322566,-3.77229 c 0.71418,-0.71418 0.93021,-1.19325 1.08051,-2.39625 0.29558,-2.36572 0.2042,-2.53265 -1.34144,-2.45042 -1.804654,0.096 -2.894178,0.78348 -3.362239,2.12152 -1.009745,2.88656 1.542274,4.80605 3.623169,2.72515 z m -33.515117,3.5368 c -0.0743,-0.19361 -0.102936,-4.24203 -0.06364,-8.99649 l 0.07144,-8.64447 h 1.891489 1.89149 l 0.08309,1.14841 c 0.0457,0.63162 0.167295,1.14372 0.270212,1.13799 0.102918,-0.006 0.430948,-0.40091 0.728956,-0.87819 0.686299,-1.09916 2.099791,-1.81257 3.592331,-1.81311 1.511666,-5.4e-4 2.582433,0.57494 3.546814,1.90623 l 0.779898,1.07661 0.552488,-0.89394 c 1.697941,-2.74733 6.34688,-2.74388 7.952836,0.006 0.456125,0.781 0.530035,1.65704 0.66317,7.86039 0.08241,3.83978 0.06739,7.3099 -0.03337,7.71137 -0.181571,0.72344 -0.201802,0.72924 -2.269389,0.65117 l -2.086184,-0.0788 -0.07257,-6.47303 c -0.06958,-6.20563 -0.09664,-6.49865 -0.655081,-7.09309 -0.757213,-0.80601 -1.877571,-0.79355 -2.837596,0.0316 l -0.758153,0.65161 -0.135106,6.44147 -0.135106,6.44147 -2.06549,0.0784 -2.06549,0.0784 -0.09621,-6.34112 c -0.09008,-5.93684 -0.132379,-6.38976 -0.663481,-7.10394 -0.803277,-1.08017 -2.184665,-1.17586 -3.089042,-0.21398 -0.661623,0.70369 -0.668202,0.76196 -0.8022,7.10587 l -0.135106,6.39636 -1.962951,0.0795 c -1.422711,0.0576 -2.000127,-0.0174 -2.098033,-0.27255 z m 42.836517,-2.08999 c 0,-1.06741 0.14185,-2.20635 0.31523,-2.53097 0.17338,-0.32461 1.69333,-2.56165 3.37766,-4.9712 1.68434,-2.40954 3.06243,-4.44228 3.06243,-4.51721 0,-0.0749 -1.36796,-0.17061 -3.0399,-0.21263 l -3.03989,-0.0764 v -1.62127 -1.62128 l 5.85451,-0.0728 5.85452,-0.0728 0.1753,0.79816 c 0.28471,1.29627 -0.24946,2.5844 -2.2261,5.36813 -1.02557,1.44432 -2.37245,3.35561 -2.99308,4.24732 l -1.1284,1.62127 1.14971,0.2035 c 2.90371,0.51396 3.9232,0.79044 4.73489,1.28405 0.82709,0.50298 0.87333,0.61631 0.87333,2.14041 0,0.88511 -0.11317,1.67924 -0.25149,1.76473 -0.13832,0.0855 -1.20228,-0.16385 -2.36436,-0.55409 -1.81374,-0.60906 -2.43805,-0.69177 -4.40968,-0.58424 -1.26325,0.0689 -2.84399,0.33538 -3.51277,0.59218 -2.52,0.96763 -2.43191,1.01055 -2.43191,-1.18493 z m 16.48901,1.41625 c 0.003,-0.26633 -0.0271,-4.22773 -0.0676,-8.80311 -0.0831,-9.39477 -0.21795,-8.82847 2.10403,-8.8355 2.4216,-0.007 2.29913,-0.52198 2.21751,9.3182 l -0.0717,8.64681 -2.09415,0.0789 c -1.86417,0.0703 -2.09348,0.0257 -2.08811,-0.40532 z m 7.55992,-8.45552 v -8.91702 h 2.0266 2.02659 v 1.35107 c 0,0.74308 0.0912,1.35073 0.20266,1.35033 0.11147,-4e-4 0.44585,-0.45104 0.74309,-1.00142 1.43108,-2.64987 5.61931,-2.83547 7.48532,-0.33171 0.78628,1.05499 1.04478,3.84077 0.96427,10.39142 l -0.073,5.93925 -2.06833,0.0785 -2.06834,0.0785 -0.11047,-6.15824 c -0.0689,-3.84304 -0.22919,-6.43943 -0.42628,-6.90618 -0.67439,-1.5971 -2.7163,-1.51387 -3.7143,0.15141 -0.46133,0.76977 -0.53083,1.53937 -0.62124,6.87897 l -0.1018,6.01223 h -2.13238 -2.13239 z m -7.58817,-12.09202 c -0.0122,-0.11146 -0.0811,-0.5662 -0.15303,-1.01052 -0.0719,-0.44433 -0.0555,-1.2093 0.0365,-1.69994 l 0.16735,-0.89207 2.07982,0.0787 2.07982,0.0787 0.0799,1.82394 0.0799,1.82393 h -2.17405 c -1.19572,0 -2.18404,-0.0912 -2.19626,-0.20266 z"
         id="path1" /></g><path
       style="fill:#000000;stroke-width:0.264583"
       d="m 49.710563,147.22794 0.315071,0.0908"
       id="path9" /></g></svg>
